<?xml version="1.0" encoding="UTF-8"?>
<svg version="1.1" xmlns="http://www.w3.org/2000/svg" width="3375" height="3375">
<path d="M0 0 C1.42602644 -0.00043715 2.8520528 -0.00131469 4.27807873 -0.00258917 C8.15945749 -0.00480589 12.04080821 -0.00085191 15.92218339 0.0041889 C20.12172143 0.00853412 24.32125807 0.0070441 28.52079773 0.00628662 C35.78446129 0.00576396 43.04811582 0.00888381 50.31177711 0.01452446 C60.81362748 0.02267442 71.3154735 0.02525826 81.81732669 0.02651245 C98.85862289 0.02869749 115.89991429 0.03534268 132.94120789 0.04481506 C149.48873368 0.05400338 166.03625817 0.06107726 182.58378601 0.06532288 C184.11547213 0.06571696 184.11547213 0.06571696 185.6781014 0.06611901 C190.80111958 0.06742411 195.92413778 0.0686878 201.04715598 0.06993091 C243.50313559 0.08028644 285.95910997 0.09788982 328.41508484 0.12025452 C327.5489675 4.56328776 326.38694073 8.85791458 325.13383484 13.20619202 C323.34626538 20.45362037 323.26347423 27.46300599 323.25686646 34.89562988 C323.24945949 36.66869596 323.24945949 36.66869596 323.24190289 38.47758156 C323.22923014 41.74542126 323.22092099 45.01323808 323.21447623 48.28109491 C323.20644568 51.8099878 323.1927571 55.33885934 323.17976379 58.86773682 C323.1580386 64.97741461 323.13987971 71.08709461 323.12415886 77.1967907 C323.10142411 86.03033119 323.07328633 94.86384802 323.04383958 103.69736839 C322.99620781 118.02997036 322.9529317 132.36258202 322.91239929 146.69520569 C322.87302188 160.6161118 322.83159028 174.5370093 322.78739929 188.457901 C322.78331288 189.74552449 322.78331288 189.74552449 322.77914392 191.05916058 C322.76546407 195.36567877 322.75174387 199.67219683 322.73800361 203.97871482 C322.62410821 239.69254353 322.51728355 275.40639049 322.41508484 311.12025452 C321.85777036 311.12123133 321.30045589 311.12220813 320.72625309 311.12321454 C287.68290646 311.18150788 254.63963514 311.25532078 221.59637118 311.3492408 C217.62733269 311.36050873 213.65829384 311.37164722 209.68925476 311.38270569 C208.89910264 311.38490937 208.10895052 311.38711306 207.2948544 311.38938352 C194.50692211 311.42473966 181.71898989 311.44961329 168.93102688 311.47060154 C155.80585032 311.492377 142.68073709 311.525444 129.55561441 311.56895608 C121.45907744 311.59544274 113.36261936 311.61316008 105.26604121 311.61960056 C99.05377154 311.62548646 92.84164627 311.64709523 86.62943649 311.67453003 C84.08377642 311.68332058 81.53809292 311.68703074 78.99241829 311.68526268 C75.51400511 311.68360965 72.03613847 311.70031289 68.55780029 311.7215271 C67.55291457 311.71667952 66.54802884 311.71183195 65.51269203 311.70683748 C57.88548318 311.78348523 51.55502055 313.00683625 45.16508484 317.30775452 C35.89870594 326.78473293 35.11567438 336.17838974 35.1245575 348.9591217 C35.11856613 350.36101131 35.11175919 351.76289762 35.10420227 353.16477966 C35.08659511 356.95838897 35.08184908 360.75190794 35.0805707 364.54555416 C35.07914533 366.92047237 35.07486841 369.2953679 35.06957626 371.67028046 C35.05109218 379.96937508 35.04290346 388.26840562 35.04447937 396.56752014 C35.04567974 404.28094195 35.02459381 411.99408348 34.99299204 419.70743442 C34.96676323 426.34804551 34.95611486 432.98856544 34.95739019 439.62922788 C34.95789796 443.58724159 34.95231792 447.54500612 34.93103409 451.50296783 C34.91154024 455.2295725 34.9116023 458.95569318 34.92606735 462.68231583 C34.92912502 464.68522258 34.91255663 466.68812997 34.89518738 468.69096375 C34.95952123 478.02122623 36.08374223 486.92168929 42.60258484 494.05775452 C50.26276453 500.62612772 57.73500014 501.70635192 67.59066105 501.62247658 C69.40116813 501.63103341 69.40116813 501.63103341 71.24825111 501.63976312 C74.59192396 501.65154545 77.93469471 501.64548861 81.27830259 501.63185577 C84.91857794 501.62144843 88.55878392 501.63432227 92.19905037 501.64423311 C98.5772782 501.65841197 104.95537146 501.65782086 111.33360481 501.64753532 C120.81903394 501.63231963 130.30434739 501.64005852 139.78977554 501.65257441 C155.75245704 501.67302714 171.71509159 501.67519064 187.67778206 501.66724014 C203.49861151 501.65947874 219.31940004 501.66085106 235.14022636 501.67406845 C236.61677177 501.67530016 236.61677177 501.67530016 238.12314638 501.67655675 C243.12285919 501.68078849 248.12257182 501.68520424 253.1222844 501.6897047 C288.54890437 501.72139951 323.97551217 501.7360934 359.40214539 501.73939514 C361.54449222 501.73960082 363.68683906 501.73980687 365.8291859 501.74001329 C366.89062962 501.74011483 367.95207334 501.74021638 369.04568202 501.740321 C374.4150728 501.74083578 379.78446359 501.74135988 385.15385437 501.74189758 C386.21843722 501.74200232 387.28302006 501.74210706 388.379863 501.74221497 C413.07739607 501.74473158 437.7749266 501.7523765 462.47245789 501.76185608 C464.0583848 501.76245882 464.0583848 501.76245882 465.67635064 501.76307373 C489.83504985 501.7722997 513.99374641 501.7839039 538.15244198 501.80013084 C539.67750669 501.80115153 539.67750669 501.80115153 541.23338078 501.80219284 C550.38195228 501.80833608 559.5305237 501.814573 568.67909478 501.82130973 C591.4651862 501.83808124 614.25125489 501.84902448 637.03735293 501.84539261 C652.92681818 501.84287977 668.81626969 501.84680191 684.7057317 501.85747434 C694.13222166 501.86354667 703.55867312 501.86398326 712.98516208 501.85627417 C719.29891186 501.85164934 725.61263243 501.85434018 731.92637825 501.86270711 C735.51268091 501.86724585 739.09890801 501.86880261 742.68520731 501.86124845 C763.32907528 501.82074718 784.03271221 502.24770803 804.41508484 505.87025452 C805.39034119 506.04016907 806.36559753 506.21008362 807.3704071 506.38514709 C862.75329331 516.40436227 911.94200919 542.28025522 952.41508484 581.12025452 C953.30969421 581.97361389 954.20430359 582.82697327 955.12602234 583.70619202 C961.05174287 589.48604865 966.26627075 595.64865567 971.41508484 602.12025452 C972.34911269 603.24315688 973.28541771 604.36416798 974.22367859 605.48353577 C1021.59807222 662.49788655 1035.57795535 732.58080973 1035.56034851 804.8094635 C1035.5633493 807.30425058 1035.56675391 809.79903721 1035.57052612 812.29382324 C1035.57837314 818.31173384 1035.58157668 824.32962906 1035.5821385 830.34754335 C1035.58261815 835.2528361 1035.58469493 840.15812569 1035.58783913 845.06341743 C1035.59662039 859.05348656 1035.6012625 873.04354809 1035.60050865 887.03361999 C1035.6004687 887.78368155 1035.60042874 888.53374311 1035.60038757 889.30653381 C1035.60032625 890.43304274 1035.60032625 890.43304274 1035.60026369 891.58230943 C1035.59985797 903.72998441 1035.60941561 915.87762829 1035.62352594 928.0252943 C1035.63799023 940.57945042 1035.64479065 953.13359148 1035.64393216 965.68775612 C1035.64360363 972.7033544 1035.64625326 979.71891975 1035.65711021 986.73451042 C1035.7779104 1068.72911051 1027.38751097 1145.23132147 973.41508484 1211.12025452 C972.95086121 1211.68744202 972.48663757 1212.25462952 972.00834656 1212.83900452 C959.88651015 1227.5058235 946.56466502 1241.55933051 931.41508484 1253.12025452 C930.46246765 1253.88982483 929.50985046 1254.65939514 928.52836609 1255.45228577 C879.48380461 1294.52794014 818.04408767 1313.31513277 755.81997395 1313.25447559 C754.05807907 1313.2564321 752.29618464 1313.25882229 750.53429088 1313.26160356 C745.70285996 1313.26796919 740.87144574 1313.26816796 736.04001142 1313.26732615 C730.77991326 1313.26749633 725.51982096 1313.27340997 720.25972575 1313.27856702 C709.83198605 1313.28787485 699.40425059 1313.29181197 688.97650725 1313.29408598 C676.48479461 1313.29705261 663.99308758 1313.30575246 651.50137789 1313.31450026 C621.31828359 1313.33532213 591.13518924 1313.34581274 560.95208958 1313.35462987 C550.95794609 1313.35756553 540.96380281 1313.36093563 530.96965957 1313.36459708 C529.91149715 1313.36498452 529.91149715 1313.36498452 528.83195772 1313.36537978 C525.97776808 1313.36642606 523.12357844 1313.36747448 520.26938879 1313.3685256 C471.45962939 1313.38648466 422.64986964 1313.4018643 373.84010741 1313.40928464 C370.00882615 1313.4098686 366.17754489 1313.41046587 362.34626363 1313.41106225 C361.58627272 1313.41118037 360.8262818 1313.41129849 360.04326086 1313.41142019 C352.34369889 1313.41261755 344.64413692 1313.41382632 336.94457496 1313.41505272 C335.40081097 1313.41529796 333.85704698 1313.41554181 332.31328299 1313.41578429 C282.7067747 1313.42357817 233.10029003 1313.44597434 183.49379207 1313.47846072 C147.83664289 1313.50180408 112.17949841 1313.52335646 76.52234173 1313.53046703 C75.42263169 1313.53068756 75.42263169 1313.53068756 74.30070529 1313.53091255 C58.20745284 1313.53409718 42.11420042 1313.53614821 26.02094769 1313.5371401 C19.54609695 1313.53755484 13.07124622 1313.53810973 6.59639549 1313.53870201 C5.53346872 1313.53879301 5.53346872 1313.53879301 4.44906869 1313.53888586 C-18.37964762 1313.54090209 -41.20833601 1313.55514181 -64.03704257 1313.57564701 C-87.66263347 1313.59679288 -111.28817675 1313.60358844 -134.91377874 1313.59377322 C-148.53799207 1313.58854603 -162.16209456 1313.59449334 -175.786292 1313.61630789 C-184.88010996 1313.62977148 -193.97385126 1313.62877845 -203.06766991 1313.61590594 C-208.25327604 1313.60897991 -213.43866959 1313.60843981 -218.62425711 1313.62546603 C-223.34117957 1313.64082772 -228.05771782 1313.63779365 -232.77462867 1313.62005575 C-234.47084952 1313.61690458 -236.16709944 1313.62046477 -237.86328701 1313.63154749 C-249.81556325 1313.7045586 -259.72612134 1312.73104466 -268.82710266 1304.18275452 C-274.15441023 1297.93204697 -276.70331507 1290.63751407 -276.71634293 1282.4852562 C-276.72018407 1281.57865179 -276.72402522 1280.67204738 -276.72798276 1279.73797011 C-276.72711628 1278.75091779 -276.72624979 1277.76386547 -276.72535706 1276.74690247 C-276.72981374 1275.16355933 -276.72981374 1275.16355933 -276.73436046 1273.54822946 C-276.74304323 1270.00549804 -276.74455535 1266.46280042 -276.74604797 1262.9200592 C-276.75067642 1260.38223193 -276.75570112 1257.84440535 -276.76109314 1255.30657959 C-276.77421604 1248.4077308 -276.78069864 1241.50889314 -276.7851038 1234.61003399 C-276.78786879 1230.30041315 -276.7921066 1225.99079455 -276.79660797 1221.68117523 C-276.80879833 1209.74334733 -276.81909825 1197.80552122 -276.82248306 1185.86768723 C-276.82270263 1185.10401557 -276.82292219 1184.34034392 -276.82314841 1183.55353071 C-276.82336669 1182.78805881 -276.82358497 1182.02258692 -276.82380986 1181.23391891 C-276.82425332 1179.68284718 -276.82469989 1178.13177546 -276.82514954 1176.58070374 C-276.82537097 1175.81132281 -276.8255924 1175.04194189 -276.82582054 1174.24924639 C-276.82976784 1161.78492106 -276.84722085 1149.32065421 -276.87050906 1136.85635146 C-276.89423909 1124.05197687 -276.90668566 1111.24763161 -276.90785098 1098.44323468 C-276.90876679 1091.25703828 -276.91449534 1084.07091811 -276.93267059 1076.88474274 C-276.94970819 1070.12469021 -276.95131188 1063.36480688 -276.94253159 1056.60473061 C-276.94176066 1054.12516454 -276.9461112 1051.64559074 -276.95598984 1049.16604424 C-276.9686963 1045.77770428 -276.96283909 1042.38987765 -276.95240784 1039.00154114 C-276.96046424 1038.0234117 -276.96852065 1037.04528226 -276.97682118 1036.03751254 C-276.90650024 1026.25172785 -274.1981208 1017.51148435 -267.58491516 1010.12025452 C-257.05462968 1001.73900689 -245.50549586 1001.82685183 -232.66053581 1001.86692142 C-231.0320067 1001.86464243 -229.40347862 1001.86148638 -227.77495271 1001.85753575 C-223.29516796 1001.84920232 -218.81546736 1001.85329685 -214.33568217 1001.85938701 C-209.4637945 1001.86379822 -204.59192192 1001.85658948 -199.72003758 1001.8508305 C-191.17989561 1001.84232341 -182.63977732 1001.8411837 -174.09963226 1001.84484291 C-161.40035996 1001.85023111 -148.70111144 1001.84414179 -136.00184181 1001.83555412 C-114.63828536 1001.82137247 -93.27473552 1001.8160395 -71.91117477 1001.81529427 C-42.74203454 1001.81411647 -13.57291133 1001.79893402 15.59622179 1001.7797991 C29.18093262 1001.7708877 42.76564385 1001.76262821 56.35035515 1001.7544775 C57.36988047 1001.75386411 57.36988047 1001.75386411 58.41000227 1001.75323832 C90.7558949 1001.7337995 123.10178925 1001.71991322 155.44768535 1001.70773295 C157.59384149 1001.70692424 159.73999763 1001.70611138 161.88615376 1001.70529779 C194.23038138 1001.69305599 226.57460924 1001.68239496 258.91883803 1001.67380635 C262.51091997 1001.67285128 266.10300191 1001.67188762 269.69508385 1001.67092374 C270.40580231 1001.67073307 271.11652078 1001.67054241 271.84877617 1001.67034596 C279.01619397 1001.66842196 286.18361178 1001.66648535 293.35102958 1001.66453795 C295.49704737 1001.66395584 297.64306517 1001.66337713 299.78908297 1001.66279868 C332.11052518 1001.65405902 364.43196344 1001.64292051 396.7534008 1001.62282467 C397.77213803 1001.62219303 397.77213803 1001.62219303 398.8114558 1001.62154864 C413.04990544 1001.61270271 427.28835463 1001.60328582 441.52680336 1001.59307937 C448.19403026 1001.58830589 454.86125726 1001.58370218 461.52848434 1001.57919121 C462.84068684 1001.57830333 464.15288933 1001.57741545 465.50485553 1001.57650066 C486.65203598 1001.56255197 507.7992036 1001.55993074 528.94638796 1001.56187086 C550.18343536 1001.56366293 571.42045688 1001.55504896 592.65749563 1001.53556246 C605.2847158 1001.52432856 617.91187334 1001.52158675 630.53909551 1001.53075881 C638.96466879 1001.5360697 647.39018986 1001.53061603 655.81575253 1001.51628207 C660.62218693 1001.50842334 665.42849484 1001.50539713 670.23492791 1001.51550133 C674.60432131 1001.52459947 678.97347454 1001.52000724 683.34284734 1001.50433119 C684.91665023 1001.50111579 686.49047334 1001.50296181 688.06426197 1001.51039452 C690.19800768 1001.51974569 692.33091895 1001.51064199 694.46462357 1001.4969607 C696.2381444 1001.49646206 696.2381444 1001.49646206 698.04749394 1001.49595335 C705.59937466 1000.65344222 711.43698609 996.73496548 716.41508484 991.12025452 C720.38876717 984.74273967 722.53290514 979.0466713 722.55552673 971.53671265 C722.56123688 970.39989548 722.56694702 969.26307831 722.5728302 968.09181213 C722.57394806 966.8486322 722.57506592 965.60545227 722.57621765 964.32460022 C722.58118256 963.01198715 722.58614746 961.69937408 722.59126282 960.34698486 C722.60436663 956.74755917 722.61082814 953.14815211 722.61527348 949.54870629 C722.61820822 947.29728144 722.62231384 945.04586163 722.62677765 942.79443932 C722.64044893 935.74274225 722.65011669 928.69105677 722.65397954 921.63934737 C722.65845578 913.51354136 722.67598497 905.38790393 722.70498013 897.26214916 C722.72664053 890.97237982 722.73668618 884.68265775 722.73802066 878.39285153 C722.73906582 874.64057152 722.74491141 870.88845006 722.76284027 867.13620949 C722.77939599 863.6026047 722.78144046 860.06927635 722.77270126 856.53564644 C722.77157149 854.63252364 722.78523189 852.72940971 722.79945374 850.82633972 C722.76256911 843.20379442 722.17412392 836.37224844 717.94242859 829.85072327 C709.83708486 821.98435773 701.08784434 820.52444133 690.11366749 820.61803246 C688.30098025 820.60947562 688.30098025 820.60947562 686.45167306 820.60074592 C683.10859197 820.58897628 679.76641523 820.59500918 676.42339953 820.60865326 C672.78204324 820.61907097 669.14075585 820.60618286 665.49940842 820.59627593 C659.12086296 820.58210438 652.7424521 820.58268354 646.36390114 820.59297371 C636.87806928 820.60819612 627.392353 820.60044701 617.90652211 820.58793463 C601.94303284 820.56748722 585.97959053 820.56531665 570.0160923 820.57326889 C554.19608937 820.58103121 538.37612736 820.57965622 522.55612755 820.56644058 C521.57168756 820.56561944 520.58724757 820.5647983 519.57297607 820.56395228 C514.57286143 820.55972054 509.57274697 820.55530478 504.57263257 820.55080433 C469.14763981 820.51911347 433.72265922 820.50441596 398.2976532 820.50111389 C396.15561262 820.50090821 394.01357203 820.50070217 391.87153145 820.50049575 C390.27958909 820.50034343 390.27958909 820.50034343 388.65548628 820.50018803 C383.28677824 820.49967325 377.91807021 820.49914915 372.54936218 820.49861145 C371.48490122 820.49850671 370.42044026 820.49840198 369.3237229 820.49829407 C344.6249274 820.49577706 319.92613442 820.48813165 295.2273407 820.47865295 C294.16990455 820.47825113 293.1124684 820.4778493 292.02298874 820.4774353 C267.86230192 820.46820989 243.70161775 820.45660689 219.54093456 820.44037819 C218.52425256 820.43969773 217.50757057 820.43901727 216.46008002 820.4383162 C207.31199392 820.43217309 198.16390789 820.42593621 189.01582219 820.4191993 C166.22921726 820.40242605 143.44263507 820.39148509 120.65602351 820.39511642 C104.76781781 820.39762866 88.87962586 820.3937097 72.99142341 820.38303469 C63.56471805 820.37696034 54.1380512 820.3765287 44.71134685 820.38423486 C38.39876531 820.38885718 32.08621302 820.38617303 25.77363544 820.37780193 C22.18719745 820.37326003 18.60083506 820.3717138 15.0144004 820.37926058 C-5.19846802 820.41888423 -25.37098792 819.90490685 -45.33491516 816.43275452 C-46.30767395 816.26469299 -47.28043274 816.09663147 -48.28266907 815.92347717 C-112.62727372 804.26810427 -175.48141558 769.62892828 -215.58491516 717.12025452 C-216.08426575 716.48087952 -216.58361633 715.84150452 -217.09809875 715.18275452 C-237.08795438 689.5126891 -252.94815235 660.2342988 -262.58491516 629.12025452 C-262.84466125 628.30202209 -263.10440735 627.48378967 -263.37202454 626.64076233 C-274.4663668 591.39910475 -276.73846103 555.92263337 -276.73017883 519.24525452 C-276.73317684 516.57545846 -276.73655352 513.90566516 -276.74035645 511.23587036 C-276.74859692 504.77659135 -276.75140827 498.31732148 -276.75196882 491.85803765 C-276.75244718 486.59696175 -276.75451767 481.33588881 -276.75766945 476.07481384 C-276.76645822 461.09504593 -276.77109165 446.11528513 -276.77033897 431.13551462 C-276.77029902 430.3310989 -276.77025906 429.52668319 -276.7702179 428.69789124 C-276.77017701 427.89247127 -276.77013613 427.08705131 -276.77009401 426.25722468 C-276.76968811 413.22323763 -276.77924821 400.18927954 -276.79335626 387.15530086 C-276.80779274 373.70971587 -276.81462247 360.26414494 -276.81376249 346.81855202 C-276.813433 339.29500222 -276.81606963 331.77148279 -276.82694054 324.24794006 C-276.83614198 317.83973334 -276.83814315 311.43157074 -276.83143111 305.02336019 C-276.82821359 301.76740066 -276.82906521 298.51154093 -276.83678436 295.25558662 C-276.9741686 233.21651752 -264.53084056 170.40533278 -227.58491516 119.12025452 C-227.09829407 118.42899475 -226.61167297 117.73773499 -226.11030579 117.02552795 C-218.43178368 106.13156738 -210.27918628 96.17090822 -200.98823547 86.6207428 C-199.05794853 84.55679994 -197.34671305 82.32817291 -195.58491516 80.12025452 C-194.45099645 79.04303174 -193.28384387 77.99962024 -192.08491516 76.99525452 C-189.68398175 74.95424165 -187.34673812 72.89315547 -185.06538391 70.71791077 C-136.59936632 24.55657094 -66.30305898 -0.14893659 0 0 Z " fill="#FFFFFF" transform="translate(986.5849151611328,814.8797454833984)"/>
<path d="M0 0 C0.71086861 -0.00165078 1.42173721 -0.00330156 2.15414729 -0.00500236 C4.54106966 -0.00932327 6.92793021 -0.00652731 9.31485415 -0.00377727 C11.04889458 -0.0054271 12.78293465 -0.00751346 14.51697409 -0.00999737 C19.30383876 -0.01557144 24.09068556 -0.01489024 28.87755244 -0.01321978 C34.07746615 -0.01248972 39.27737478 -0.01750922 44.47728634 -0.0217948 C54.8010357 -0.02938247 65.12477989 -0.03156825 75.44853174 -0.03212385 C87.81110116 -0.03303678 100.17366578 -0.03970239 112.53623313 -0.04647068 C141.71546047 -0.06216168 170.89468613 -0.06822112 200.07391676 -0.0728777 C214.92661425 -0.07526133 229.77931129 -0.07896497 244.63200843 -0.0829148 C292.2931354 -0.09558223 339.95426235 -0.10636391 387.61539097 -0.10975526 C389.89380712 -0.1099175 392.17222327 -0.11008306 394.45063942 -0.11024964 C399.01994875 -0.11058344 403.58925809 -0.11091392 408.15856743 -0.1112442 C413.50798133 -0.1116311 418.85739523 -0.1120207 424.20680912 -0.11241527 C425.73784917 -0.11252769 427.26888922 -0.1126391 428.79992927 -0.11274952 C477.92747167 -0.11629575 527.05499942 -0.13135925 576.18253622 -0.15468726 C611.48032932 -0.17144148 646.77811964 -0.18690952 682.07591677 -0.19142222 C682.80272846 -0.19151571 683.52954015 -0.1916092 684.27837643 -0.19170551 C700.23858727 -0.19372516 716.19879807 -0.19488071 732.15900903 -0.1952341 C737.87105963 -0.19537026 743.58311023 -0.19557925 749.29516082 -0.19582735 C750.71610414 -0.19588891 752.13704745 -0.19594723 753.55799077 -0.1960023 C776.15248739 -0.19692019 798.74696868 -0.20686539 821.34146026 -0.22145979 C844.75923655 -0.23652527 868.17698656 -0.24064013 891.59476858 -0.23236683 C905.07919322 -0.22792275 918.56355508 -0.23172204 932.04797143 -0.24760534 C941.07438768 -0.25740102 950.10076025 -0.25613356 959.12717617 -0.24616911 C964.25797709 -0.24080984 969.38865802 -0.23995976 974.5194487 -0.25267783 C1013.44357859 -0.34304814 1050.32894933 2.66979235 1087.76188326 14.1276505 C1088.5330649 14.36177648 1089.30424654 14.59590245 1090.09879732 14.83712316 C1126.86153075 26.23714633 1160.85038279 47.406122 1188.90641451 73.494838 C1191.42492225 75.81696415 1193.98496067 78.07303586 1196.57438326 80.3151505 C1199.99929884 83.34653897 1203.02806595 86.53784456 1205.97282076 90.0339005 C1207.1922954 91.4610586 1208.44981178 92.85636529 1209.73844576 94.2214005 C1221.52037454 106.73166669 1231.04952494 121.36514169 1239.76188326 136.1276505 C1240.17003267 136.8176212 1240.57818209 137.50759191 1240.99869967 138.21847081 C1265.59919251 180.20152024 1278.96367809 228.12107874 1278.89331102 276.83529305 C1278.8949647 278.18498605 1278.8970528 279.53467857 1278.89953113 280.8843703 C1278.90505565 284.57608816 1278.90443316 288.26778263 1278.90275354 291.95950328 C1278.90201861 295.98264377 1278.90705433 300.00577787 1278.91132855 304.02891558 C1278.91888771 312.00080241 1278.92110055 319.97268253 1278.92165761 327.94457256 C1278.92257333 337.49693403 1278.92924709 347.04928934 1278.93600443 356.60164815 C1278.95204634 379.68803586 1278.9579659 402.77442289 1278.96275318 425.86081517 C1278.96509119 436.78917747 1278.9686941 447.71753925 1278.97244856 458.64590115 C1278.98528318 496.07780812 1278.99600187 533.5097148 1278.99945116 570.94162393 C1278.99967279 573.29037548 1278.99989457 575.63912703 1279.00011651 577.98787859 C1279.00033715 580.34220628 1279.00055763 582.69653397 1279.00077796 585.05086166 C1279.0012205 589.77380494 1279.00166762 594.49674823 1279.00211763 599.21969151 C1279.00222702 600.39070243 1279.00233642 601.56171334 1279.00244912 602.76820943 C1279.0060779 640.71872344 1279.02199165 678.66921832 1279.045308 716.619725 C1279.06993199 756.77226322 1279.08362521 796.92479051 1279.08481908 837.07733649 C1279.08499052 841.48949294 1279.08520595 845.90164938 1279.08545351 850.31380582 C1279.08550928 851.40014997 1279.08556505 852.48649412 1279.08562251 853.6057578 C1279.08677079 871.05088294 1279.09777386 888.49598838 1279.11234057 905.94110688 C1279.12674301 923.49376725 1279.12992147 941.0464025 1279.12190059 958.59906716 C1279.11746179 969.01143175 1279.12123443 979.42371497 1279.13713909 989.83606878 C1279.14695302 996.81069389 1279.14565028 1003.78526255 1279.13570287 1010.75988725 C1279.13035659 1014.72116368 1279.12944997 1018.6822849 1279.14221159 1022.6435479 C1279.37291722 1099.19646674 1255.4814882 1172.41385016 1201.76188326 1228.1276505 C1201.14651705 1228.77024816 1200.53115084 1229.41284581 1199.89713717 1230.07491612 C1191.55156745 1238.75114759 1183.0393643 1246.7617062 1173.36295748 1253.932338 C1171.85503962 1255.05810284 1170.37194888 1256.2169052 1168.89078951 1257.3776505 C1145.18774248 1275.78778412 1118.11302159 1289.51912962 1089.76188326 1299.1276505 C1088.61719576 1299.53112706 1087.47250826 1299.93460362 1086.29313326 1300.35030675 C1056.8696383 1310.11859069 1026.22286593 1313.29684942 995.40646029 1313.24790502 C993.35346425 1313.24834164 991.30046827 1313.24921824 989.24747258 1313.25049418 C983.63305792 1313.25272114 978.01866248 1313.24874257 972.40425026 1313.24371612 C966.33966409 1313.23938589 960.27507894 1313.24085987 954.21049166 1313.24161839 C943.71212887 1313.242142 933.21377159 1313.23904733 922.71541071 1313.23338056 C911.70973541 1313.22745523 900.7040626 1313.22361293 889.69838572 1313.22252774 C889.01303767 1313.222459 888.32768963 1313.22239026 887.62157347 1313.22231944 C884.1407677 1313.22198109 880.65996193 1313.22167971 877.17915616 1313.22139256 C852.55088707 1313.21929444 827.92262123 1313.21256348 803.29435396 1313.20308995 C779.37443226 1313.19389954 755.45451145 1313.18681886 731.53458834 1313.18258214 C730.7967405 1313.18245061 730.05889266 1313.18231909 729.2986858 1313.18218358 C721.8886379 1313.18086501 714.47859 1313.1795892 707.06854209 1313.17834472 C691.97460795 1313.17580878 676.88067388 1313.17298753 661.78673983 1313.16999364 C661.09280758 1313.16985635 660.39887533 1313.16971906 659.68391483 1313.16957761 C613.3765696 1313.16038331 567.06922627 1313.144518 520.76188326 1313.1276505 C524.16853407 1309.58176328 527.80835601 1307.12845748 532.01188326 1304.6276505 C556.04260293 1289.94542988 578.47579177 1270.52094894 596.76188326 1249.1276505 C597.58688326 1248.18018956 598.41188326 1247.23272862 599.26188326 1246.25655675 C636.54628457 1203.17086411 661.59130423 1150.12687742 671.76188326 1094.1276505 C671.92478853 1093.23771398 672.08769381 1092.34777745 672.2555356 1091.43087316 C673.2765095 1085.68256029 674.08114395 1079.92547254 674.76188326 1074.1276505 C674.85952974 1073.3321378 674.95717623 1072.53662511 675.0577817 1071.71700597 C676.87160139 1056.28121719 677.02888013 1040.78927792 677.31657076 1025.2682755 C677.36048466 1023.01843286 677.40467192 1020.76859555 677.44913912 1018.51876378 C677.55653854 1013.05511666 677.66056456 1007.59141359 677.76188326 1002.1276505 C678.32554564 1002.12667369 678.88920803 1002.12569688 679.46995109 1002.12469047 C712.88906738 1002.06639816 746.30810919 1001.99258604 779.72714373 1001.89866422 C783.74124605 1001.88739627 787.75534872 1001.87625778 791.76945162 1001.86519933 C792.96813757 1001.8618938 792.96813757 1001.8618938 794.19103939 1001.8585215 C807.12446863 1001.82316458 820.05789781 1001.79829138 832.99135744 1001.77730348 C846.2656952 1001.75552864 859.53997034 1001.72246223 872.81425482 1001.67894894 C881.00292005 1001.65246121 889.19150727 1001.63474465 897.38021321 1001.62830446 C902.99815068 1001.62304176 908.61599004 1001.60679521 914.23387491 1001.58198484 C917.47344939 1001.56799992 920.71281414 1001.56041784 923.95242357 1001.56264234 C927.47024606 1001.56429514 930.98752791 1001.547594 934.5052762 1001.52637792 C935.52183477 1001.53122549 936.53839334 1001.53607307 937.58575672 1001.54106754 C945.48633394 1001.46254465 953.34650126 1000.32767221 959.41422701 994.7839005 C964.13632656 988.98050858 966.88474162 981.96065586 966.88953376 974.51301634 C966.89254973 973.58346874 966.8955657 972.65392115 966.89867306 971.69620544 C966.89690359 970.6763735 966.89513412 969.65654157 966.89331102 968.60580564 C966.89536366 967.51687357 966.89741629 966.4279415 966.89953113 965.3060115 C966.90522425 961.62572757 966.90374103 957.9454808 966.90232515 954.26519322 C966.90490747 951.61249506 966.90788128 948.95979995 966.91132855 946.30710304 C966.91891509 939.76098907 966.92110195 933.21488326 966.92165761 926.66876536 C966.92257061 918.83014542 966.92923626 910.99153304 966.93600443 903.15291635 C966.95207358 884.20561721 966.95796877 865.25831887 966.96275318 846.31101415 C966.96508823 837.34944132 966.96869078 828.38786914 966.97244856 819.42629681 C966.98528492 788.7561076 966.996004 758.08591874 966.99945116 727.4157269 C966.99967279 725.48998393 966.99989458 723.56424096 967.00011651 721.63849799 C967.00033715 719.70807424 967.00055764 717.77765049 967.00077796 715.84722674 C967.00122052 711.97439273 967.00166763 708.10155872 967.00211763 704.22872472 C967.00222702 703.26848516 967.00233642 702.3082456 967.00244912 701.31890787 C967.00608007 670.18036186 967.02200111 639.04183912 967.045308 607.90330203 C967.06989836 574.98989248 967.08362363 542.07649624 967.08481908 509.16307724 C967.08499054 505.55067857 967.08520596 501.93827991 967.08545351 498.32588124 C967.08553716 496.99164823 967.08553716 496.99164823 967.08562251 495.63046101 C967.08677365 481.30949559 967.09780109 466.98855403 967.11234057 452.66759668 C967.12669972 438.27547795 967.12994584 423.88338986 967.12190059 409.49126594 C967.11744156 400.93943878 967.12131583 392.38771041 967.13713909 383.83589621 C967.14688234 378.122868 967.14571711 372.40990907 967.13570287 366.69688151 C967.13030606 363.44206709 967.13127315 360.18748051 967.14221159 356.93267445 C967.15326091 353.42312499 967.14584555 349.91407757 967.13382006 346.40454221 C967.14141525 345.39875727 967.14901044 344.39297233 967.15683579 343.35670906 C967.09277327 334.70987453 965.66352328 325.78591104 959.76188326 319.1276505 C950.83865719 312.60033366 943.37808457 311.97853755 932.60681009 311.9889853 C930.90720762 311.98472197 930.90720762 311.98472197 929.17326975 311.98037252 C925.35499147 311.97201308 921.53674348 311.97075632 917.71845675 311.96943212 C914.96203459 311.96541918 912.20561588 311.95990964 909.44919622 311.95446855 C903.44521561 311.9434118 897.44123921 311.93603987 891.43725061 311.93106961 C882.50952178 311.92366237 873.5818076 311.91057893 864.6540874 311.89632386 C849.63666979 311.87250644 834.61924958 311.85330515 819.60182238 311.83672452 C804.73028503 311.82028992 789.85875256 311.80180986 774.98722124 311.78059125 C774.06294038 311.77927364 773.13865951 311.77795604 772.18637014 311.7765985 C767.49251389 311.76989652 762.7986577 311.76315793 758.10480152 311.75640524 C724.84857307 311.70862796 691.59234007 311.66544702 658.33610201 311.62496495 C626.0258773 311.58562394 593.71565634 311.54420356 561.40543795 311.49996495 C560.40969181 311.49860242 559.41394567 311.49723989 558.38802541 311.49583607 C548.38843533 311.48215083 538.3888453 311.46842328 528.38925532 311.45466473 C508.01850037 311.42663735 487.64774503 311.39889236 467.27698946 311.3713181 C466.34035209 311.3700499 465.40371472 311.3687817 464.43869439 311.36747507 C435.72669285 311.32861413 407.01468992 311.29095026 378.30268526 311.2544663 C377.48743664 311.2534299 376.67218803 311.25239351 375.83223491 311.25132572 C342.80878528 311.20936254 309.78533407 311.16866572 276.76188326 311.1276505 C276.76188326 359.9676505 276.76188326 408.8076505 276.76188326 459.1276505 C198.7565729 459.16798185 198.7565729 459.16798185 166.25993013 459.17647862 C158.82104665 459.17843664 151.38216318 459.18045716 143.94327974 459.18258214 C143.01087471 459.18284589 142.07846968 459.18310964 141.11780995 459.18338138 C126.04438934 459.18773641 110.97097252 459.19562336 95.89755417 459.2048033 C80.44010995 459.21413893 64.98266773 459.21970592 49.52522081 459.22173899 C39.97918174 459.22311441 30.43315339 459.227466 20.88711762 459.23556697 C14.3502704 459.24083331 7.81342876 459.24245505 1.27657957 459.24115188 C-2.5006737 459.24050832 -6.27790817 459.24152797 -10.05515814 459.24685597 C-14.14048444 459.2525768 -18.22577017 459.25065171 -22.31109953 459.24790502 C-24.12185765 459.25227428 -24.12185765 459.25227428 -25.96919674 459.25673181 C-27.05452381 459.25474076 -28.13985088 459.25274971 -29.25806665 459.25069833 C-30.67461335 459.25126791 -30.67461335 459.25126791 -32.11977714 459.251849 C-34.23811674 459.1276505 -34.23811674 459.1276505 -35.23811674 458.1276505 C-35.33809843 455.86446316 -35.36552119 453.59807819 -35.36675119 451.3326838 C-35.36938075 450.24897852 -35.36938075 450.24897852 -35.37206343 449.14338019 C-35.37676238 446.69163097 -35.374248 444.23994005 -35.37182951 441.78818822 C-35.37369555 440.02491224 -35.37599542 438.26163667 -35.37869483 436.49836177 C-35.3848453 431.6286474 -35.38467544 426.75895012 -35.38350046 421.88923275 C-35.38329725 416.64633526 -35.38880763 411.40344337 -35.39355803 406.16054845 C-35.40188395 395.87754909 -35.40461378 385.59455546 -35.4051704 375.31155301 C-35.40564484 366.95306036 -35.40769599 358.5945696 -35.41087103 350.23607755 C-35.4196845 326.55284168 -35.42428956 302.86961035 -35.42354055 279.18637282 C-35.4235006 277.90814436 -35.42346064 276.62991589 -35.42341948 275.31295323 C-35.42337859 274.0331681 -35.42333771 272.75338297 -35.42329559 271.43481647 C-35.42288939 250.7067108 -35.43245071 229.97862333 -35.44655784 209.25052292 C-35.46091921 187.98134827 -35.46782809 166.7121825 -35.46696407 145.44300288 C-35.46663191 133.49647302 -35.46938673 121.54996221 -35.48014212 109.60343671 C-35.48924418 99.42771957 -35.49142494 89.25203009 -35.48463269 79.07631064 C-35.48136542 73.8842873 -35.4813182 68.69231705 -35.48998594 63.50029874 C-35.49784315 58.74481276 -35.4964274 53.98942203 -35.48770181 49.23393839 C-35.48616506 47.51576631 -35.48798958 45.79758716 -35.49356189 44.07942344 C-35.57010477 18.79851192 -35.57010477 18.79851192 -26.37874174 9.182338 C-18.46240655 1.84898873 -10.70984043 0.00437024 0 0 Z " fill="#D69024" transform="translate(1387.2381167411804,814.8723495006561)"/>
<path d="M0 0 C1.41654669 0.00056958 1.41654669 0.00056958 2.86171049 0.00115067 C4.4897011 -0.00183591 4.4897011 -0.00183591 6.15058041 -0.00488281 C7.96133852 -0.00051355 7.96133852 -0.00051355 9.80867761 0.00394398 C11.07951682 0.00308955 12.35035603 0.00223513 13.65970552 0.00135481 C17.20334688 -0.00089254 20.74695829 0.00313439 24.29059583 0.00813287 C28.10588317 0.01243377 31.92116869 0.01099121 35.73645777 0.0102306 C42.35208343 0.00970513 48.96769927 0.01285428 55.58332247 0.01846844 C65.14851398 0.0265804 74.71370073 0.02919835 84.27889531 0.03045643 C99.79614458 0.03264743 115.3133886 0.03930881 130.83063501 0.04875904 C145.9081087 0.05793192 160.98558097 0.06501336 176.06305689 0.06926686 C177.45609624 0.06966094 177.45609624 0.06966094 178.8772778 0.07006299 C183.53605332 0.07136798 188.19482884 0.0726317 192.85360438 0.07387489 C231.52962771 0.084249 270.20564135 0.1026881 308.8816604 0.1241985 C308.8816604 31.4741985 308.8816604 62.8241985 308.8816604 95.1241985 C269.2791197 95.14622419 229.67658474 95.16469593 190.07403967 95.17526383 C185.40371207 95.1765146 180.73338447 95.17780892 176.06305689 95.17913014 C174.66832856 95.1795236 174.66832856 95.1795236 173.24542391 95.17992502 C158.16939102 95.18428204 143.09336194 95.19216977 128.01733131 95.20135129 C112.55988709 95.21068693 97.10244487 95.21625391 81.64499795 95.21828699 C72.09895888 95.21966241 62.55293053 95.224014 53.00689476 95.23211496 C46.47004754 95.23738131 39.9332059 95.23900305 33.39635671 95.23769987 C29.61910344 95.23705632 25.84186897 95.23807597 22.064619 95.24340397 C17.9792927 95.2491248 13.89400697 95.24719971 9.80867761 95.24445301 C7.9979195 95.24882228 7.9979195 95.24882228 6.15058041 95.25327981 C5.06525333 95.25128876 3.97992626 95.24929771 2.86171049 95.24724633 C1.4451638 95.24781591 1.4451638 95.24781591 0 95.24839699 C-2.1183396 95.1241985 -2.1183396 95.1241985 -3.1183396 94.1241985 C-3.21890651 91.23813834 -3.25449335 88.37597275 -3.24773413 85.48943287 C-3.24948645 84.58381108 -3.25123877 83.67818928 -3.25304419 82.7451244 C-3.25746414 79.73604657 -3.25452421 76.72702698 -3.2511521 73.7179485 C-3.2518251 71.63669024 -3.25279509 69.55543207 -3.25405127 67.47417408 C-3.25552843 63.10604312 -3.25337308 58.73793256 -3.24871069 54.36980397 C-3.2430134 48.75705297 -3.2462923 43.14434978 -3.25228316 37.53160053 C-3.25588826 33.23208461 -3.25475042 28.93258011 -3.25215536 24.63306385 C-3.25148595 22.56290388 -3.252315 20.49274289 -3.25463492 18.42258412 C-3.25716061 15.53468263 -3.25332202 12.64685972 -3.24773413 9.75896412 C-3.24975836 8.89451176 -3.25178259 8.0300594 -3.25386816 7.13941151 C-3.22882096 0.18930615 -3.22882096 0.18930615 0 0 Z " fill="#D69024" transform="translate(1355.1183395981789,1678.8758015036583)"/>
<path d="M0 0 C109.66690251 0 109.66690251 0 132.31640625 22.1953125 C150.5550396 41.25694095 157.45195067 68.88224207 157.15234375 94.6484375 C155.99329292 120.14755574 149.03404293 143.54067458 132 163 C131.40574219 163.69351563 130.81148437 164.38703125 130.19921875 165.1015625 C119.631949 176.55153975 104.15580999 183.10552375 89 185 C59.63 185 30.26 185 0 185 C0 123.95 0 62.9 0 0 Z M40 36 C40 72.96 40 109.92 40 148 C73.64308307 151.14046672 73.64308307 151.14046672 102 138 C109.79909296 128.90105821 114.46925099 117.84590996 116 106 C116.1340625 104.98808594 116.268125 103.97617188 116.40625 102.93359375 C117.84552274 88.81890768 116.56427515 74.1333259 111 61 C110.690625 60.25492188 110.38125 59.50984375 110.0625 58.7421875 C105.44899496 48.63092229 97.47718635 42.05598487 87.21875 37.86328125 C72.56966034 33.93433851 53.44430581 36 40 36 Z " fill="#FFFFFF" transform="translate(1964,2227)"/>
<path d="M0 0 C0.77943466 0.00222061 1.55886932 0.00444122 2.36192322 0.00672913 C3.24276077 0.00680466 4.12359833 0.00688019 5.03112793 0.00695801 C5.98841293 0.01211929 6.94569794 0.01728058 7.93199158 0.02259827 C9.39480812 0.02472069 9.39480812 0.02472069 10.88717651 0.02688599 C14.01542675 0.03250319 17.14360656 0.04505859 20.27183533 0.05775452 C22.38706867 0.0627673 24.50230313 0.06733059 26.61753845 0.07142639 C31.81482829 0.0824782 37.01207678 0.09923305 42.20933533 0.12025452 C46.75114098 9.67936941 50.87309033 19.37561266 54.89656067 29.16096497 C56.76185676 33.69670088 58.63667183 38.22850475 60.51011658 42.76087952 C60.89788773 43.69962921 61.28565887 44.63837891 61.68518066 45.60557556 C65.80822814 55.581725 69.9743327 65.53970973 74.14683533 75.49525452 C74.89976944 77.29229042 75.65269911 79.08932819 76.40562439 80.8863678 C77.9178863 84.49536801 79.43047745 88.10423005 80.94322205 91.71302795 C83.20144593 97.10072545 85.45764445 102.48926936 87.71324158 107.87806702 C88.08506058 108.76630661 88.45687958 109.6545462 88.83996582 110.56970215 C90.70044135 115.01443621 92.56039187 119.45938906 94.41954041 123.90467834 C97.95301757 132.35176259 101.49181569 140.7965212 105.04631042 149.23478699 C106.73687784 153.24891912 108.42487171 157.26413107 110.11265564 161.2794342 C110.92288621 163.20494618 111.73439647 165.12992022 112.54722595 167.05433655 C113.66954564 169.71170294 114.787562 172.37084088 115.90464783 175.03041077 C116.24118378 175.82403519 116.57771973 176.61765961 116.92445374 177.43533325 C119.20933533 182.89252236 119.20933533 182.89252236 119.20933533 185.12025452 C104.68933533 185.12025452 90.16933533 185.12025452 75.20933533 185.12025452 C72.56933533 178.89150452 69.92933533 172.66275452 67.20933533 166.24525452 C66.37402283 164.27959534 65.53871033 162.31393616 64.67808533 160.28871155 C64.02155158 158.73528326 63.36528322 157.18174278 62.70933533 155.62806702 C62.36386658 154.81781067 62.01839783 154.00755432 61.66246033 153.17274475 C59.20933533 147.34839812 59.20933533 147.34839812 59.20933533 145.12025452 C33.46933533 145.12025452 7.72933533 145.12025452 -18.79066467 145.12025452 C-19.78066467 148.42025452 -20.77066467 151.72025452 -21.79066467 155.12025452 C-22.71230786 157.56382372 -23.67096068 159.99389313 -24.67347717 162.40541077 C-25.06308121 163.346157 -25.06308121 163.346157 -25.46055603 164.3059082 C-26.00105236 165.60818875 -26.54387121 166.90950779 -27.08900452 168.20985413 C-27.92633771 170.2082267 -28.75549088 172.20985491 -29.58363342 174.21205139 C-33.64369467 183.97328452 -33.64369467 183.97328452 -34.79066467 185.12025452 C-36.17226582 185.21303782 -37.55854505 185.23772494 -38.94325256 185.23377991 C-39.82409012 185.23370438 -40.70492767 185.23362885 -41.61245728 185.23355103 C-42.56974228 185.22838974 -43.52702728 185.22322845 -44.51332092 185.21791077 C-45.48853195 185.21649582 -46.46374298 185.21508087 -47.46850586 185.21362305 C-50.5967561 185.20800584 -53.72493591 185.19545044 -56.85316467 185.18275452 C-58.96839802 185.17774173 -61.08363248 185.17317844 -63.1988678 185.16908264 C-68.39615763 185.15803083 -73.59340612 185.14127598 -78.79066467 185.12025452 C-76.85947495 179.06786954 -74.67158519 173.1948105 -72.19300842 167.34681702 C-71.84694046 166.52269318 -71.5008725 165.69856934 -71.14431763 164.84947205 C-70.00862546 162.14678235 -68.86837093 159.44604252 -67.72816467 156.74525452 C-66.9211738 154.82678202 -66.11453975 152.90815939 -65.3082428 150.98939514 C-63.63432935 147.00671668 -61.95888866 143.02468596 -60.28236389 139.04310608 C-56.80944583 130.79204378 -53.35519749 122.53318038 -49.90083313 114.27433777 C-48.03016122 109.80211651 -46.158518 105.3303019 -44.28675842 100.85853577 C-43.91522644 99.97087021 -43.54369446 99.08320465 -43.16090393 98.16864014 C-40.92328184 92.82332091 -38.68336591 87.47896939 -36.44158936 82.13539124 C-34.57801347 77.69316743 -32.71548273 73.25050576 -30.85316467 68.80775452 C-30.48917572 67.93967163 -30.12518677 67.07158875 -29.75016785 66.17720032 C-25.29148751 55.53984243 -20.86323786 44.89043179 -16.47035217 34.22572327 C-16.03043442 33.15813278 -15.59051666 32.0905423 -15.13726807 30.99060059 C-12.99390928 25.7875739 -10.85385582 20.58322127 -8.71864319 15.37684631 C-7.94974458 13.50743564 -7.18078622 11.63804954 -6.41175842 9.76869202 C-6.05850494 8.90426987 -5.70525146 8.03984772 -5.34129333 7.14923096 C-2.46386976 0.16546452 -2.46386976 0.16546452 0 0 Z M19.20933533 54.12025452 C18.72053894 55.29942444 18.23174255 56.47859436 17.72813416 57.6934967 C15.89246876 62.1217647 14.05665965 66.54997309 12.22080994 70.97816467 C11.43040692 72.88472426 10.64004146 74.79129942 9.84971619 76.69789124 C9.08189396 78.55018344 8.31398114 80.40243809 7.54597473 82.25465393 C6.79662036 84.06233597 6.04769429 85.87019561 5.29920959 87.67823792 C3.7260766 91.47608802 2.14981632 95.27213292 0.54283142 99.05580139 C0.0860199 100.13410217 -0.37079163 101.21240295 -0.84144592 102.32337952 C-1.22598938 103.22217834 -1.61053284 104.12097717 -2.00672913 105.04701233 C-2.90855839 107.06262594 -2.90855839 107.06262594 -2.79066467 109.12025452 C12.38933533 109.12025452 27.56933533 109.12025452 43.20933533 109.12025452 C42.45791699 105.36316282 41.71966177 102.62468604 40.27574158 99.17811584 C39.87862976 98.22395279 39.48151794 97.26978973 39.07237244 96.28671265 C38.64319519 95.26885178 38.21401794 94.25099091 37.77183533 93.20228577 C37.33170105 92.1486937 36.89156677 91.09510162 36.43809509 90.00958252 C35.03282278 86.648815 33.62107784 83.29080849 32.20933533 79.93275452 C31.25840669 77.66013865 30.30788112 75.38735409 29.35777283 73.11439514 C27.6218512 68.96667414 25.88530517 64.81922387 24.14292908 60.67420959 C23.79286804 59.841017 23.44280701 59.0078244 23.08213806 58.14938354 C22.49692994 56.78886674 21.8716758 55.44493547 21.20933533 54.12025452 C20.54933533 54.12025452 19.88933533 54.12025452 19.20933533 54.12025452 Z " fill="#FFFFFF" transform="translate(1104.7906646728516,2226.8797454833984)"/>
<path d="M0 0 C12.41414965 10.24167346 12.41414965 10.24167346 13.9375 17.25 C10.22984767 19.83431179 6.52125766 22.41727479 2.8125 25 C1.76578125 25.72960938 0.7190625 26.45921875 -0.359375 27.2109375 C-1.88691406 28.27441406 -1.88691406 28.27441406 -3.4453125 29.359375 C-4.37746582 30.00874023 -5.30961914 30.65810547 -6.27001953 31.32714844 C-7.19153809 31.96168945 -8.11305664 32.59623047 -9.0625 33.25 C-10.10647949 34.01086914 -11.15045898 34.77173828 -12.22607422 35.55566406 C-13.16209473 36.11479492 -14.09811523 36.67392578 -15.0625 37.25 C-18.0625 36.25 -18.0625 36.25 -20.125 33.5625 C-25.63281374 26.63600696 -34.52384071 22.89438656 -43.0625 21.5 C-52.53974805 20.65153016 -61.53612116 21.95157415 -69.29296875 27.6171875 C-73.33127675 31.34348495 -74.96438812 34.85094992 -76.0625 40.25 C-75.98815169 44.56220169 -75.70480695 46.51979842 -72.8359375 49.78125 C-61.68179776 59.71000538 -43.81183672 62.28053418 -29.82080078 66.14550781 C5.62170691 75.97125983 5.62170691 75.97125983 15.3125 91.125 C22.11597118 103.48809445 23.62405436 117.62715319 19.9375 131.25 C13.20054817 148.75080687 0.38701842 160.71146003 -16.32421875 168.7109375 C-37.39261924 177.8176712 -61.79032636 177.76774951 -83.23828125 170.1171875 C-101.6401402 162.25670461 -112.6661826 151.1145051 -121.0625 133.25 C-118.33063513 129.93672523 -114.67884718 128.41986215 -110.875 126.640625 C-109.82662964 126.14402374 -109.82662964 126.14402374 -108.75708008 125.63739014 C-107.28265336 124.94161777 -105.80661841 124.24924456 -104.32910156 123.56005859 C-102.06510255 122.50121718 -99.80986698 121.42513089 -97.5546875 120.34765625 C-96.12029085 119.67341616 -94.68541078 119.00020336 -93.25 118.328125 C-92.57493408 118.00426819 -91.89986816 117.68041138 -91.2043457 117.34674072 C-86.40629387 115.13540204 -86.40629387 115.13540204 -83.0625 116.25 C-82.17578125 118.0703125 -82.17578125 118.0703125 -81.375 120.375 C-78.42042764 127.41449247 -73.24553079 131.42189614 -66.4375 134.625 C-55.97072706 138.80456462 -45.58425739 137.81451373 -35.0625 134.25 C-28.97290639 131.54681454 -25.58046176 128.43998933 -23.0625 122.25 C-22.19647137 117.99408786 -22.69151346 114.95075235 -24.75 111.0625 C-31.79294721 103.73867261 -45.19038835 102.05892374 -54.6875 99.875 C-74.94783239 94.99601957 -98.30274801 89.23061898 -110.375 70.5625 C-117.22099588 58.03375545 -119.28809321 44.42402208 -115.9375 30.5 C-110.57457883 13.86247247 -100.63089984 1.04235625 -85.1640625 -7.31640625 C-82.4940335 -8.56915095 -79.81480641 -9.69174237 -77.0625 -10.75 C-76.33804688 -11.04519531 -75.61359375 -11.34039063 -74.8671875 -11.64453125 C-50.43938431 -20.79369001 -20.48237865 -15.73646164 0 0 Z " fill="#FFFFFF" transform="translate(956.0625,2239.75)"/>
<path d="M0 0 C42.24 0 84.48 0 128 0 C128 38.41563641 128 38.41563641 118.59082031 48.25146484 C115.75385349 51.36969019 113.49329766 54.89669802 111.125 58.375 C110.11956922 59.80468109 109.11042375 61.23175673 108.09765625 62.65625 C107.58992676 63.37039062 107.08219727 64.08453125 106.55908203 64.8203125 C103.91318162 68.5194354 101.23548816 72.19543216 98.5625 75.875 C94.05919539 82.07546563 89.67891974 88.34713188 85.375 94.6875 C81.11844421 100.9578217 76.76283555 107.12769108 72.24487305 113.21191406 C67.68713467 119.37043925 63.31186569 125.65377893 58.94555664 131.94897461 C58.38989014 132.74827393 57.83422363 133.54757324 57.26171875 134.37109375 C56.53408325 135.4218811 56.53408325 135.4218811 55.79174805 136.49389648 C53.25527967 140.0416343 50.62696165 143.51896877 48 147 C49.59399879 147.0154612 49.59399879 147.0154612 51.22019958 147.03123474 C61.21220949 147.12879479 71.20415469 147.2315119 81.19605923 147.33933926 C86.33356469 147.39461308 91.47107579 147.44804007 96.60864258 147.49731445 C101.56236462 147.5448924 106.51601512 147.59723256 111.46965218 147.65294075 C113.36395561 147.67339418 115.25827868 147.6921022 117.1526165 147.70907402 C119.796397 147.73305216 122.44004098 147.7631153 125.08374023 147.79467773 C125.87495773 147.8004332 126.66617523 147.80618866 127.48136902 147.81211853 C132.88594784 147.88594784 132.88594784 147.88594784 134 149 C134.10091475 151.58189446 134.13971499 154.136465 134.1328125 156.71875 C134.13376923 157.49182495 134.13472595 158.2648999 134.13571167 159.06140137 C134.13639341 160.69897544 134.13453957 162.33655219 134.13037109 163.97412109 C134.12502271 166.48931921 134.13031626 169.00433873 134.13671875 171.51953125 C134.13605797 173.10677123 134.1347768 174.6940111 134.1328125 176.28125 C134.13483673 177.03853394 134.13686096 177.79581787 134.13894653 178.5760498 C134.11495132 183.88504868 134.11495132 183.88504868 133 185 C131.16505514 185.09646028 129.32635413 185.12187344 127.48887634 185.12025452 C126.2926918 185.12162918 125.09650726 185.12300385 123.86407471 185.12442017 C122.52648901 185.12088057 121.18890356 185.11724575 119.85131836 185.11352539 C118.45217389 185.11324352 117.05302927 185.11340125 115.65388489 185.1139679 C111.84413541 185.11425588 108.03441714 185.10835898 104.22467494 185.10139394 C100.24748691 185.09516059 96.27029824 185.09455662 92.29310608 185.09336853 C84.75661461 185.09025516 77.22013757 185.08204169 69.68365246 185.07201904 C61.10580172 185.06085808 52.5279503 185.0553475 43.9500941 185.05032361 C26.30005454 185.03985908 8.65002843 185.02225953 -9 185 C-9.13899552 180.51463705 -9.22269579 176.02983482 -9.296875 171.54296875 C-9.35657471 169.64895325 -9.35657471 169.64895325 -9.41748047 167.7166748 C-9.5537729 156.71823427 -6.76853257 150.85757395 0.41357422 142.83642578 C3.1501142 139.66864281 5.44440229 136.19627214 7.8125 132.75 C8.81691349 131.32664295 9.82346316 129.90479119 10.83203125 128.484375 C14.23884911 123.66846565 17.6201108 118.83482986 21 114 C26.82107566 105.67586978 32.66854264 97.37081561 38.53222656 89.07666016 C41.52322097 84.84489063 44.51077281 80.61068895 47.49829102 76.37646484 C50.00760652 72.82047642 52.51912256 69.26608256 55.03515625 65.71484375 C55.54240234 64.998125 56.04964844 64.28140625 56.57226562 63.54296875 C57.50628854 62.22334005 58.44106615 60.90424485 59.37695312 59.5859375 C64.66480099 52.11080858 69.81106088 44.54754781 75 37 C50.25 36.67 25.5 36.34 0 36 C0 24.12 0 12.24 0 0 Z " fill="#FFFFFF" transform="translate(1465,2227)"/>
<path d="M0 0 C42.24 0 84.48 0 128 0 C128 38.41663757 128 38.41663757 117.73632812 49.11035156 C114.67279765 52.44439626 112.1630966 56.1769366 109.5625 59.875 C108.47105865 61.38354127 107.37860581 62.89135122 106.28515625 64.3984375 C102.94540769 69.04651049 99.71497633 73.76509354 96.5 78.5 C91.71751516 85.54347903 86.8116295 92.4818462 81.80688477 99.36889648 C76.64010583 106.47993596 71.57082251 113.65724165 66.51464844 120.84716797 C63.86783218 124.60919662 61.21497025 128.36695678 58.5625 132.125 C58.07837646 132.81150635 57.59425293 133.4980127 57.09545898 134.20532227 C56.63212158 134.86201904 56.16878418 135.51871582 55.69140625 136.1953125 C55.29123291 136.76266113 54.89105957 137.33000977 54.47875977 137.91455078 C52.32724122 140.94877093 50.16198138 143.97322606 48 147 C76.05 147.33 104.1 147.66 133 148 C133 160.21 133 172.42 133 185 C114.50276951 185.02254618 96.00555009 185.04097868 77.50830936 185.05181217 C68.92032951 185.05697534 60.33235877 185.06401844 51.74438477 185.07543945 C44.26184583 185.08538565 36.77931349 185.09185327 29.29676813 185.09408849 C25.33235414 185.09539571 21.36795905 185.09848226 17.4035511 185.10573006 C13.67639787 185.11248926 9.94927143 185.11461717 6.22211266 185.11310768 C4.85024495 185.11338406 3.4783764 185.11538978 2.10651398 185.11920547 C0.24139037 185.12414108 -1.62374744 185.12239794 -3.48887634 185.12025452 C-4.53511138 185.12117631 -5.58134642 185.1220981 -6.65928555 185.12304783 C-9 185 -9 185 -10 184 C-11.47358326 172.50979694 -12.69914729 159.26533062 -5.375 149.625 C-3.85188256 147.72066343 -2.29110304 145.86314297 -0.68994141 144.02392578 C2.46709707 140.24295945 5.15714871 136.12345833 7.9375 132.0625 C9.12910004 130.35768769 10.3230978 128.65454871 11.51953125 126.953125 C12.10299316 126.12232422 12.68645508 125.29152344 13.28759766 124.43554688 C17.36027455 118.64298562 21.44455869 112.85864862 25.53222656 107.07666016 C28.02320986 103.55232484 30.51144903 100.02605299 33 96.5 C33.99998722 95.08332432 34.99998722 93.66665764 36 92.25 C36.495 91.54875 36.99 90.8475 37.5 90.125 C50 72.41666667 62.5 54.70833333 75 37 C50.25 36.67 25.5 36.34 0 36 C0 24.12 0 12.24 0 0 Z " fill="#FFFFFF" transform="translate(1665,2227)"/>
<path d="M0 0 C38.28 0 76.56 0 116 0 C116 11.88 116 23.76 116 36 C90.92 36 65.84 36 40 36 C40 46.89 40 57.78 40 69 C62.11 69 84.22 69 107 69 C107.020625 74.919375 107.04125 80.83875 107.0625 86.9375 C107.071604 88.80784912 107.08070801 90.67819824 107.09008789 92.60522461 C107.09300709 94.07926359 107.09555564 95.55330337 107.09765625 97.02734375 C107.10277222 97.79953247 107.10788818 98.57172119 107.11315918 99.36730957 C107.11346974 101.24525187 107.06233569 103.12309253 107 105 C106 106 106 106 103.37413025 106.12025452 C102.20386795 106.11803391 101.03360565 106.11581329 99.82788086 106.11352539 C99.18399918 106.11367142 98.54011749 106.11381744 97.87672424 106.1139679 C95.73939697 106.11326885 93.60215587 106.10547691 91.46484375 106.09765625 C89.98653715 106.09579204 88.50822993 106.09436815 87.02992249 106.09336853 C83.13201198 106.08954359 79.23413851 106.07971352 75.33624268 106.06866455 C70.66316239 106.05665516 65.99006974 106.05204808 61.31697845 106.04621124 C54.21129318 106.03650174 47.10568924 106.01734505 40 106 C40 119.86 40 133.72 40 148 C65.08 148 90.16 148 116 148 C116 160.21 116 172.42 116 185 C77.72 185 39.44 185 0 185 C0 123.95 0 62.9 0 0 Z " fill="#FFFFFF" transform="translate(2177,2227)"/>
<path d="M0 0 C14.52 0 29.04 0 44 0 C50.74498715 14.61413882 50.74498715 14.61413882 53.234375 20.81640625 C53.50956467 21.49886917 53.78475433 22.18133209 54.06828308 22.88447571 C54.65781557 24.34729314 55.24594281 25.81067761 55.83273315 27.27459717 C57.46088642 31.33563622 59.10062348 35.39200549 60.73828125 39.44921875 C61.08302994 40.30416931 61.42777863 41.15911987 61.78297424 42.03997803 C65.80094295 51.99869257 69.8679157 61.93729141 73.9375 71.875 C74.31055267 72.78619598 74.68360535 73.69739197 75.06796265 74.63619995 C77.32966645 80.16026902 79.59253546 85.68385995 81.85583496 91.20727539 C83.01787422 94.04362812 84.17942036 96.88018232 85.34082031 99.71679688 C87.22473873 104.31804686 89.10947291 108.91896176 90.99490356 113.51959229 C91.70239344 115.24618065 92.40965133 116.97286409 93.1166687 118.699646 C94.08874991 121.0735089 95.06181345 123.44696666 96.03515625 125.8203125 C96.32278839 126.52327454 96.61042053 127.22623657 96.9067688 127.95050049 C98.36630385 131.51423908 98.36630385 131.51423908 100 135 C100.21059052 134.48383118 100.42118103 133.96766235 100.63815308 133.43585205 C111.98638182 105.62132024 123.33795617 77.80816958 134.72329712 50.00880432 C136.97396411 44.5116648 139.21892268 39.01222753 141.46014404 33.51123047 C142.94989906 29.85587533 144.44220359 26.20156422 145.93493652 22.54742432 C146.63867191 20.82292982 147.34124893 19.0979621 148.04260254 17.37249756 C149.00457049 15.00621 149.97055955 12.64160284 150.9375 10.27734375 C151.21994568 9.57960342 151.50239136 8.8818631 151.793396 8.16297913 C153.00461972 5.21179898 154.22247247 2.6662913 156 0 C157.87295532 -0.36076355 157.87295532 -0.36076355 160.17431641 -0.34057617 C161.03505768 -0.34034958 161.89579895 -0.34012299 162.78262329 -0.33988953 C163.71287323 -0.32440567 164.64312317 -0.30892181 165.6015625 -0.29296875 C166.55316254 -0.28872391 167.50476257 -0.28447906 168.48519897 -0.28010559 C171.53208414 -0.26327896 174.57831391 -0.22561954 177.625 -0.1875 C179.68749046 -0.17245831 181.74999127 -0.15876901 183.8125 -0.14648438 C188.8752535 -0.11336239 193.93751554 -0.06155284 199 0 C198.30224646 4.772493 196.50572513 8.90816537 194.6328125 13.3125 C194.28669418 14.13672455 193.94057587 14.9609491 193.58396912 15.81015015 C192.43544062 18.54200234 191.28025077 21.2709845 190.125 24 C189.31072135 25.93293904 188.49684502 27.86604761 187.68334961 29.79931641 C185.55046179 34.86481775 183.41189146 39.92789944 181.27178955 44.99035645 C179.26041567 49.75019932 177.25350144 54.51192095 175.24609375 59.2734375 C171.69751918 67.68797828 168.14382054 76.10034503 164.58789062 84.51177979 C160.61612948 93.90703668 156.64863452 103.30409254 152.68154907 112.70132446 C151.50944732 115.47762262 150.33715462 118.25384006 149.16479492 121.0300293 C145.4334081 129.86626973 141.70308176 138.70295464 137.97564697 147.54086304 C136.2030902 151.74352769 134.43005586 155.9459908 132.65698242 160.1484375 C131.80697026 162.16347299 130.95719548 164.17860862 130.10766602 166.19384766 C128.9343459 168.97713706 127.76022941 171.76008924 126.5859375 174.54296875 C126.23586639 175.37398605 125.88579529 176.20500336 125.52511597 177.061203 C123.11386608 182.77226785 123.11386608 182.77226785 122 185 C107.48 185 92.96 185 78 185 C71.25555123 171.51110245 71.25555123 171.51110245 68.80078125 165.53515625 C68.52841644 164.87643524 68.25605164 164.21771423 67.97543335 163.53903198 C67.39006827 162.12232231 66.80660835 160.70482412 66.22494507 159.28659058 C64.5997199 155.32509405 62.95883539 151.3700729 61.3203125 147.4140625 C60.79920143 146.15434883 60.79920143 146.15434883 60.26756287 144.8691864 C56.1267589 134.869788 51.90547736 124.90452286 47.6875 114.9375 C41.05835553 99.26400875 34.46235075 83.57711695 27.90319824 67.87420654 C23.52194512 57.38580387 19.11995442 46.90663393 14.68359375 36.44140625 C14.24342926 35.40233124 13.80326477 34.36325623 13.34976196 33.29269409 C11.21271373 28.24826457 9.0727598 23.20510509 6.92773438 18.1640625 C6.15873123 16.35031253 5.38984477 14.53651309 4.62109375 12.72265625 C4.26784531 11.89560684 3.91459686 11.06855743 3.55064392 10.21644592 C3.22769852 9.45287277 2.90475311 8.68929962 2.57202148 7.90258789 C2.29100082 7.24174698 2.00998016 6.58090607 1.72044373 5.90003967 C1 4 1 4 0 0 Z " fill="#FFFFFF" transform="translate(2345,2227)"/>
<path d="M0 0 C44.22 0 88.44 0 134 0 C134 11.88 134 23.76 134 36 C118.49 36 102.98 36 87 36 C87 85.17 87 134.34 87 185 C73.8 185 60.6 185 47 185 C47 135.83 47 86.66 47 36 C31.49 36 15.98 36 0 36 C0 24.12 0 12.24 0 0 Z " fill="#FFFFFF" transform="translate(1270,2227)"/>
<path d="M0 0 C11 0 11 0 14.63671875 3.55078125 C15.69136718 5.11321105 16.70723988 6.70235706 17.6875 8.3125 C18.77853624 9.96231207 19.86968196 11.61205174 20.9609375 13.26171875 C21.47624023 14.07044434 21.99154297 14.87916992 22.52246094 15.71240234 C24.50277849 18.77842605 26.63804748 21.69371506 28.8125 24.625 C29.43769531 25.48351563 30.06289062 26.34203125 30.70703125 27.2265625 C31.13371094 27.81179687 31.56039063 28.39703125 32 29 C36.34738116 24.9562962 39.63874824 20.50478682 43 15.625 C44.52049095 13.44074143 46.04044387 11.2574835 47.5859375 9.09082031 C49.0257864 7.04527064 49.0257864 7.04527064 50.1015625 4.90136719 C51.1875 2.9609375 51.1875 2.9609375 54 0 C57.63 0 61.26 0 65 0 C65 21.45 65 42.9 65 65 C61.7 65 58.4 65 55 65 C54.67 49.82 54.34 34.64 54 19 C49.52751854 25.07261294 49.52751854 25.07261294 45.05541992 31.14550781 C44.49443604 31.90702148 43.93345215 32.66853516 43.35546875 33.453125 C42.78465576 34.22817383 42.21384277 35.00322266 41.62573242 35.80175781 C41.08924072 36.52717773 40.55274902 37.25259766 40 38 C39.52361084 38.73734375 39.04722168 39.4746875 38.55639648 40.234375 C37 42 37 42 34.97998047 42.69824219 C31.31050605 42.8599777 28.95984836 42.82723449 26.09863281 40.36132812 C24.27720977 38.07029516 22.68837224 35.72407451 21.125 33.25 C20.57070312 32.425 20.01640625 31.6 19.4453125 30.75 C18.41307202 29.21156467 17.39343117 27.66454111 16.39111328 26.10644531 C15.00949502 24.01437751 13.50426793 22.00569057 12 20 C11.67 34.85 11.34 49.7 11 65 C7.37 65 3.74 65 0 65 C0 43.55 0 22.1 0 0 Z " fill="#D69024" transform="translate(1550,2466)"/>
<path d="M0 0 C12 0 12 0 14.90234375 2.4296875 C15.62226687 3.55255266 16.29896717 4.70393583 16.9375 5.875 C17.746166 7.16565235 18.55750215 8.45463444 19.37109375 9.7421875 C19.99927002 10.77811035 19.99927002 10.77811035 20.64013672 11.83496094 C23.06455407 15.69487711 25.80191518 19.32882892 28.5 23 C34.04162798 30.63712617 39.51536086 38.3215052 45 46 C45.33 30.82 45.66 15.64 46 0 C49.63 0 53.26 0 57 0 C57 21.45 57 42.9 57 65 C46 65 46 65 43.52734375 63.3046875 C43.00269531 62.50289062 42.47804688 61.70109375 41.9375 60.875 C40.98230469 59.49441406 40.98230469 59.49441406 40.0078125 58.0859375 C39.34523438 57.06757813 38.68265625 56.04921875 38 55 C36.85116241 53.39798771 35.70197454 51.79619801 34.54345703 50.20117188 C33.2820032 48.45785369 32.03778348 46.7033056 30.796875 44.9453125 C27.58254925 40.39987223 24.32327221 35.88718402 21.0625 31.375 C20.22875854 30.21967773 20.22875854 30.21967773 19.37817383 29.04101562 C18.85247803 28.31333984 18.32678223 27.58566406 17.78515625 26.8359375 C17.31988525 26.19188965 16.85461426 25.5478418 16.37524414 24.88427734 C14.93429981 22.90998152 13.46652625 20.95536834 12 19 C11.67 34.18 11.34 49.36 11 65 C7.37 65 3.74 65 0 65 C0 43.55 0 22.1 0 0 Z " fill="#D69024" transform="translate(1893,2466)"/>
<path d="M0 0 C7.81118272 5.47117078 13.29789825 12.0810669 15.6015625 21.4453125 C17.00793709 30.46265547 16.42951547 38.90875175 12 47 C6.2613453 54.7205051 0.35128451 60.35046939 -9 63 C-17.76727177 63.82946686 -25.40540715 63.68074907 -33 59 C-33.61101562 58.67257813 -34.22203125 58.34515625 -34.8515625 58.0078125 C-41.52297095 53.98145586 -46.27092088 46.39993572 -48.4375 39 C-50.29301412 28.76339962 -48.9546785 19.76273423 -43.6796875 10.7421875 C-33.47943831 -3.91718701 -15.90858326 -8.51671629 0 0 Z M-32.375 13.3125 C-37.79116557 20.44378466 -39.05438147 27.19005702 -38 36 C-35.8588489 42.99903156 -31.02390839 47.98406108 -25 52 C-19.13327468 53.95557511 -12.40494296 54.00552037 -6.6875 51.5 C-0.82575479 48.11776098 2.91258923 42.32864992 5 36 C5.9128491 28.4000005 5.401874 21.41837494 1 15 C-4.05395834 9.38688032 -8.7470583 6.4814651 -16.3125 5.625 C-22.74795715 6.27945327 -27.98281219 8.4734643 -32.375 13.3125 Z " fill="#D69024" transform="translate(1477,2469)"/>
<path d="M0 0 C2.83203125 0.03255208 5.6640625 0.06510417 8.49609375 0.09765625 C13.77428133 9.86619382 17.78514821 20.21629385 21.99609375 30.47265625 C22.74965403 32.30092389 23.50355789 34.12904995 24.2578125 35.95703125 C25.35179749 38.60856538 26.44503665 41.26038735 27.53515625 43.91351318 C29.05498123 47.61208255 30.57892601 51.30814474 32.140625 54.98925781 C32.82705078 56.60912598 32.82705078 56.60912598 33.52734375 58.26171875 C33.91470703 59.16615723 34.30207031 60.0705957 34.70117188 61.00244141 C35.49609375 63.09765625 35.49609375 63.09765625 35.49609375 65.09765625 C31.86609375 65.09765625 28.23609375 65.09765625 24.49609375 65.09765625 C16.49609375 49.31387247 16.49609375 49.31387247 16.49609375 45.09765625 C7.91609375 45.42765625 -0.66390625 45.75765625 -9.50390625 46.09765625 C-12.14390625 52.36765625 -14.78390625 58.63765625 -17.50390625 65.09765625 C-21.46390625 65.09765625 -25.42390625 65.09765625 -29.50390625 65.09765625 C-27.43929181 58.6656504 -25.08177145 52.45327894 -22.44921875 46.234375 C-22.06579315 45.32113968 -21.68236755 44.40790436 -21.287323 43.46699524 C-20.07094489 40.57173602 -18.85004556 37.67841008 -17.62890625 34.78515625 C-16.8174004 32.85624931 -16.00619997 30.92721385 -15.1953125 28.99804688 C-14.02070227 26.2038129 -12.84549889 23.4098405 -11.66778564 20.61691284 C-10.05158705 16.78404286 -8.438093 12.95047458 -6.85449219 9.10400391 C-6.4062207 8.01522949 -5.95794922 6.92645508 -5.49609375 5.8046875 C-5.12597168 4.89823486 -4.75584961 3.99178223 -4.37451172 3.05786133 C-3.06956468 0.11971781 -3.06956468 0.11971781 0 0 Z M2.49609375 15.09765625 C1.1569679 18.22020568 -0.17421283 21.34607983 -1.50390625 24.47265625 C-2.07625 25.80683594 -2.07625 25.80683594 -2.66015625 27.16796875 C-3.02109375 28.01875 -3.38203125 28.86953125 -3.75390625 29.74609375 C-4.25664063 30.92437744 -4.25664063 30.92437744 -4.76953125 32.12646484 C-5.62027726 34.0594256 -5.62027726 34.0594256 -5.50390625 36.09765625 C0.10609375 36.09765625 5.71609375 36.09765625 11.49609375 36.09765625 C10.59221854 31.57828022 9.26393672 27.59261069 7.55859375 23.34765625 C7.29369141 22.66316406 7.02878906 21.97867188 6.75585938 21.2734375 C5.46166238 17.49163654 5.46166238 17.49163654 2.49609375 15.09765625 Z " fill="#D69024" transform="translate(1802.50390625,2465.90234375)"/>
<path d="M0 0 C34.41666667 0 34.41666667 0 40.6875 5.25 C44.6638729 9.97865966 46.6268599 14.6892518 46.34765625 20.953125 C45.44452435 26.2704409 42.9288214 30.02895945 39.25 33.875 C32.9000947 38.02686115 26.35682957 38.28942281 19 38.125 C15.04 38.063125 15.04 38.063125 11 38 C11 46.91 11 55.82 11 65 C7.37 65 3.74 65 0 65 C0 43.55 0 22.1 0 0 Z M11 9 C11 15.27 11 21.54 11 28 C15.0528125 28.0928125 15.0528125 28.0928125 19.1875 28.1875 C20.02949951 28.21481201 20.87149902 28.24212402 21.73901367 28.27026367 C26.3371113 28.32109252 29.25550842 27.9587854 33 25 C35.3485228 22.10348854 36.01401228 20.68660183 35.9375 16.9375 C34.86004183 13.56146441 33.79096506 12.15303019 31 10 C26.96167627 8.72175287 22.94161323 8.88973353 18.75 8.9375 C14.91375 8.9684375 14.91375 8.9684375 11 9 Z " fill="#D69024" transform="translate(1674,2466)"/>
<path d="M0 0 C2.25338072 1.53264623 4.03794646 3.09097494 6 5 C2.375 10.75 2.375 10.75 -1 13 C-1.60585937 12.566875 -2.21171875 12.13375 -2.8359375 11.6875 C-8.9780376 7.60536578 -13.62109352 5.63308782 -21 7 C-27.32405357 8.72167295 -30.49294786 12.24506546 -33.8125 17.765625 C-37.0153397 23.79202075 -37.95081723 28.92592872 -36.3828125 35.64453125 C-34.24273569 42.56663811 -31.35611601 47.31323392 -25 51 C-19.10647832 53.3631029 -14.08320363 53.46080749 -8.18359375 51.13671875 C-4.45185714 49.19407948 -1.21030363 46.70295319 2 44 C3.03531726 44.90027588 4.05294165 45.82093035 5.0625 46.75 C5.63097656 47.26046875 6.19945312 47.7709375 6.78515625 48.296875 C8 50 8 50 7.91015625 52.01171875 C6.78044964 54.47961859 5.56767625 55.47513785 3.375 57.0625 C2.72273438 57.54847656 2.07046875 58.03445312 1.3984375 58.53515625 C-6.65267347 63.45236572 -14.7974961 64.37159199 -24 63 C-33.10570495 60.19429181 -39.45318208 54.98389527 -44.2734375 46.8515625 C-48.86691996 38.08811016 -49.50639637 28.27542682 -47.19921875 18.6640625 C-43.81693703 9.62139866 -38.04055476 2.58378144 -29.1875 -1.5 C-19.04496911 -5.49050396 -9.80405947 -4.80230143 0 0 Z " fill="#D69024" transform="translate(1365,2469)"/>
<path d="M0 0 C4.17876845 -0.68949679 7.84166465 -0.90020544 12 0 C15.54499251 3.13526976 17.66032432 6.9218501 20 11 C21.32755969 13.06622102 22.660597 15.12893651 24 17.1875 C25.00368514 18.78936355 26.00512267 20.39265132 27 22 C29.87880685 19.53438661 31.70680125 16.93058906 33.55859375 13.671875 C41.10369921 0.60858963 41.10369921 0.60858963 46.67578125 -1.1796875 C49.96020829 -1.12943397 52.82643978 -0.82922057 56 0 C53.36990352 5.21200175 50.40664751 9.89439954 46.828125 14.51171875 C34.16538567 31.31616933 31.40914078 44.07223611 33 65 C29.7 65 26.4 65 23 65 C23.06396973 64.23260498 23.12793945 63.46520996 23.19384766 62.67456055 C24.66865234 40.65549771 19.81264086 27.84187882 6.09057617 10.68359375 C0 2.86535093 0 2.86535093 0 0 Z " fill="#D69024" transform="translate(2005,2466)"/>
</svg>
